<mxfile host="app.diagrams.net" agent="Mozilla/5.0 (Macintosh; Intel Mac OS X 10_15_7) AppleWebKit/537.36 (KHTML, like Gecko) Chrome/136.0.0.0 Safari/537.36" version="27.0.6">
  <diagram name="第 1 页" id="TPPGtjHfXh9HnJe1UCOh">
    <mxGraphModel dx="1298" dy="706" grid="1" gridSize="10" guides="1" tooltips="1" connect="1" arrows="1" fold="1" page="1" pageScale="1" pageWidth="827" pageHeight="1169" math="0" shadow="0">
      <root>
        <mxCell id="0" />
        <mxCell id="1" parent="0" />
        <mxCell id="cltNmSNRFCDmhToncjLq-56" style="edgeStyle=orthogonalEdgeStyle;rounded=0;orthogonalLoop=1;jettySize=auto;html=1;exitX=0.5;exitY=1;exitDx=0;exitDy=0;entryX=0.5;entryY=0;entryDx=0;entryDy=0;" parent="1" source="cltNmSNRFCDmhToncjLq-1" target="cltNmSNRFCDmhToncjLq-35" edge="1">
          <mxGeometry relative="1" as="geometry" />
        </mxCell>
        <mxCell id="cltNmSNRFCDmhToncjLq-1" value="开始" style="ellipse;whiteSpace=wrap;html=1;fillColor=none;" parent="1" vertex="1">
          <mxGeometry x="295" y="1160" width="120" height="80" as="geometry" />
        </mxCell>
        <mxCell id="cltNmSNRFCDmhToncjLq-8" style="edgeStyle=orthogonalEdgeStyle;rounded=0;orthogonalLoop=1;jettySize=auto;html=1;exitX=0.5;exitY=1;exitDx=0;exitDy=0;entryX=0.5;entryY=0;entryDx=0;entryDy=0;" parent="1" edge="1">
          <mxGeometry relative="1" as="geometry">
            <mxPoint x="340" y="380" as="sourcePoint" />
          </mxGeometry>
        </mxCell>
        <mxCell id="cltNmSNRFCDmhToncjLq-15" style="edgeStyle=orthogonalEdgeStyle;rounded=0;orthogonalLoop=1;jettySize=auto;html=1;exitX=0.5;exitY=1;exitDx=0;exitDy=0;entryX=0.5;entryY=0;entryDx=0;entryDy=0;" parent="1" edge="1">
          <mxGeometry relative="1" as="geometry">
            <mxPoint x="340" y="545" as="sourcePoint" />
          </mxGeometry>
        </mxCell>
        <mxCell id="cltNmSNRFCDmhToncjLq-19" style="edgeStyle=orthogonalEdgeStyle;rounded=0;orthogonalLoop=1;jettySize=auto;html=1;exitX=0.5;exitY=1;exitDx=0;exitDy=0;entryX=0.5;entryY=0;entryDx=0;entryDy=0;" parent="1" edge="1">
          <mxGeometry relative="1" as="geometry">
            <mxPoint x="340" y="655" as="sourcePoint" />
          </mxGeometry>
        </mxCell>
        <mxCell id="cltNmSNRFCDmhToncjLq-21" style="edgeStyle=orthogonalEdgeStyle;rounded=0;orthogonalLoop=1;jettySize=auto;html=1;exitX=0.5;exitY=1;exitDx=0;exitDy=0;entryX=0.5;entryY=0;entryDx=0;entryDy=0;" parent="1" edge="1">
          <mxGeometry relative="1" as="geometry">
            <mxPoint x="340" y="790" as="sourcePoint" />
          </mxGeometry>
        </mxCell>
        <mxCell id="cltNmSNRFCDmhToncjLq-23" style="edgeStyle=orthogonalEdgeStyle;rounded=0;orthogonalLoop=1;jettySize=auto;html=1;exitX=0.5;exitY=1;exitDx=0;exitDy=0;entryX=0.5;entryY=0;entryDx=0;entryDy=0;" parent="1" edge="1">
          <mxGeometry relative="1" as="geometry">
            <mxPoint x="340" y="895.5" as="sourcePoint" />
          </mxGeometry>
        </mxCell>
        <mxCell id="cltNmSNRFCDmhToncjLq-32" style="edgeStyle=orthogonalEdgeStyle;rounded=0;orthogonalLoop=1;jettySize=auto;html=1;exitX=0.5;exitY=1;exitDx=0;exitDy=0;entryX=0.5;entryY=0;entryDx=0;entryDy=0;" parent="1" edge="1">
          <mxGeometry relative="1" as="geometry">
            <mxPoint x="340" y="1020" as="sourcePoint" />
          </mxGeometry>
        </mxCell>
        <mxCell id="cltNmSNRFCDmhToncjLq-25" value="命中灰度逻辑" style="rounded=1;whiteSpace=wrap;html=1;fillColor=none;strokeColor=default;" parent="1" vertex="1">
          <mxGeometry x="280" y="2440" width="150" height="50" as="geometry" />
        </mxCell>
        <mxCell id="cltNmSNRFCDmhToncjLq-33" style="edgeStyle=orthogonalEdgeStyle;rounded=0;orthogonalLoop=1;jettySize=auto;html=1;exitX=0.5;exitY=1;exitDx=0;exitDy=0;entryX=0.5;entryY=0;entryDx=0;entryDy=0;" parent="1" edge="1">
          <mxGeometry relative="1" as="geometry">
            <mxPoint x="351.5" y="1160" as="targetPoint" />
          </mxGeometry>
        </mxCell>
        <mxCell id="cltNmSNRFCDmhToncjLq-57" style="edgeStyle=orthogonalEdgeStyle;rounded=0;orthogonalLoop=1;jettySize=auto;html=1;exitX=0.5;exitY=1;exitDx=0;exitDy=0;" parent="1" source="cltNmSNRFCDmhToncjLq-35" target="cltNmSNRFCDmhToncjLq-39" edge="1">
          <mxGeometry relative="1" as="geometry" />
        </mxCell>
        <mxCell id="cltNmSNRFCDmhToncjLq-35" value="从配置解析source白名单" style="rounded=1;whiteSpace=wrap;html=1;fillColor=none;" parent="1" vertex="1">
          <mxGeometry x="282" y="1290" width="146" height="55.5" as="geometry" />
        </mxCell>
        <mxCell id="cltNmSNRFCDmhToncjLq-58" style="edgeStyle=orthogonalEdgeStyle;rounded=0;orthogonalLoop=1;jettySize=auto;html=1;exitX=0.5;exitY=1;exitDx=0;exitDy=0;entryX=0.5;entryY=0;entryDx=0;entryDy=0;" parent="1" source="cltNmSNRFCDmhToncjLq-39" target="cltNmSNRFCDmhToncjLq-44" edge="1">
          <mxGeometry relative="1" as="geometry" />
        </mxCell>
        <mxCell id="cltNmSNRFCDmhToncjLq-72" style="edgeStyle=orthogonalEdgeStyle;rounded=0;orthogonalLoop=1;jettySize=auto;html=1;exitX=1;exitY=0.5;exitDx=0;exitDy=0;" parent="1" source="cltNmSNRFCDmhToncjLq-39" target="cltNmSNRFCDmhToncjLq-71" edge="1">
          <mxGeometry relative="1" as="geometry" />
        </mxCell>
        <mxCell id="cltNmSNRFCDmhToncjLq-39" value="&lt;pre&gt;&lt;pre&gt;&lt;font&gt;白名单不为空&amp;amp;&amp;amp;白名单包含ALL&lt;/font&gt;&lt;/pre&gt;&lt;pre&gt;&lt;font&gt;或者&lt;/font&gt;入参source&lt;/pre&gt;&lt;/pre&gt;" style="rhombus;whiteSpace=wrap;html=1;fillColor=none;verticalAlign=middle;horizontal=1;spacing=0;fontSize=11;" parent="1" vertex="1">
          <mxGeometry x="246.75" y="1390" width="216.5" height="90" as="geometry" />
        </mxCell>
        <mxCell id="cltNmSNRFCDmhToncjLq-60" style="edgeStyle=orthogonalEdgeStyle;rounded=0;orthogonalLoop=1;jettySize=auto;html=1;exitX=0.5;exitY=1;exitDx=0;exitDy=0;entryX=0.5;entryY=0;entryDx=0;entryDy=0;" parent="1" source="cltNmSNRFCDmhToncjLq-44" target="cltNmSNRFCDmhToncjLq-59" edge="1">
          <mxGeometry relative="1" as="geometry" />
        </mxCell>
        <mxCell id="cltNmSNRFCDmhToncjLq-44" value="从配置解析aliId黑名单" style="rounded=1;whiteSpace=wrap;html=1;fillColor=none;" parent="1" vertex="1">
          <mxGeometry x="282" y="1520" width="146" height="55.5" as="geometry" />
        </mxCell>
        <mxCell id="cltNmSNRFCDmhToncjLq-47" value="是" style="text;html=1;align=center;verticalAlign=middle;whiteSpace=wrap;rounded=0;" parent="1" vertex="1">
          <mxGeometry x="470" y="2100" width="60" height="30" as="geometry" />
        </mxCell>
        <mxCell id="cltNmSNRFCDmhToncjLq-63" style="edgeStyle=orthogonalEdgeStyle;rounded=0;orthogonalLoop=1;jettySize=auto;html=1;exitX=0.5;exitY=1;exitDx=0;exitDy=0;entryX=0.5;entryY=0;entryDx=0;entryDy=0;" parent="1" source="cltNmSNRFCDmhToncjLq-48" target="cltNmSNRFCDmhToncjLq-62" edge="1">
          <mxGeometry relative="1" as="geometry" />
        </mxCell>
        <mxCell id="cltNmSNRFCDmhToncjLq-48" value="从配置解析aliId白名单" style="rounded=1;whiteSpace=wrap;html=1;fillColor=none;" parent="1" vertex="1">
          <mxGeometry x="282" y="1754" width="146" height="55.5" as="geometry" />
        </mxCell>
        <mxCell id="cltNmSNRFCDmhToncjLq-51" value="否" style="text;html=1;align=center;verticalAlign=middle;whiteSpace=wrap;rounded=0;" parent="1" vertex="1">
          <mxGeometry x="470" y="1400" width="60" height="30" as="geometry" />
        </mxCell>
        <mxCell id="cltNmSNRFCDmhToncjLq-66" style="edgeStyle=orthogonalEdgeStyle;rounded=0;orthogonalLoop=1;jettySize=auto;html=1;exitX=0.5;exitY=1;exitDx=0;exitDy=0;entryX=0.5;entryY=0;entryDx=0;entryDy=0;" parent="1" source="cltNmSNRFCDmhToncjLq-52" target="cltNmSNRFCDmhToncjLq-65" edge="1">
          <mxGeometry relative="1" as="geometry" />
        </mxCell>
        <mxCell id="cltNmSNRFCDmhToncjLq-52" value="从配置解析skuCode黑名单" style="rounded=1;whiteSpace=wrap;html=1;fillColor=none;" parent="1" vertex="1">
          <mxGeometry x="282" y="1980" width="146" height="55.5" as="geometry" />
        </mxCell>
        <mxCell id="cltNmSNRFCDmhToncjLq-69" style="edgeStyle=orthogonalEdgeStyle;rounded=0;orthogonalLoop=1;jettySize=auto;html=1;exitX=0.5;exitY=1;exitDx=0;exitDy=0;entryX=0.5;entryY=0;entryDx=0;entryDy=0;" parent="1" source="cltNmSNRFCDmhToncjLq-54" target="cltNmSNRFCDmhToncjLq-68" edge="1">
          <mxGeometry relative="1" as="geometry" />
        </mxCell>
        <mxCell id="cltNmSNRFCDmhToncjLq-54" value="从配置解析skuCode白名单" style="rounded=1;whiteSpace=wrap;html=1;fillColor=none;" parent="1" vertex="1">
          <mxGeometry x="282" y="2210" width="146" height="55.5" as="geometry" />
        </mxCell>
        <mxCell id="cltNmSNRFCDmhToncjLq-61" style="edgeStyle=orthogonalEdgeStyle;rounded=0;orthogonalLoop=1;jettySize=auto;html=1;exitX=0.5;exitY=1;exitDx=0;exitDy=0;entryX=0.5;entryY=0;entryDx=0;entryDy=0;" parent="1" source="cltNmSNRFCDmhToncjLq-59" target="cltNmSNRFCDmhToncjLq-48" edge="1">
          <mxGeometry relative="1" as="geometry" />
        </mxCell>
        <mxCell id="cltNmSNRFCDmhToncjLq-74" style="edgeStyle=orthogonalEdgeStyle;rounded=0;orthogonalLoop=1;jettySize=auto;html=1;exitX=1;exitY=0.5;exitDx=0;exitDy=0;entryX=0.5;entryY=0;entryDx=0;entryDy=0;" parent="1" source="cltNmSNRFCDmhToncjLq-59" target="cltNmSNRFCDmhToncjLq-71" edge="1">
          <mxGeometry relative="1" as="geometry" />
        </mxCell>
        <mxCell id="cltNmSNRFCDmhToncjLq-59" value="&lt;pre&gt;&lt;pre&gt;&lt;pre style=&quot;font-size: 12px;&quot;&gt;黑名单不为空，且包含&lt;/pre&gt;&lt;pre style=&quot;font-size: 12px;&quot;&gt;入参aliId&lt;/pre&gt;&lt;/pre&gt;&lt;/pre&gt;" style="rhombus;whiteSpace=wrap;html=1;fillColor=none;verticalAlign=middle;horizontal=1;spacing=0;fontSize=11;" parent="1" vertex="1">
          <mxGeometry x="246.75" y="1620" width="216.5" height="90" as="geometry" />
        </mxCell>
        <mxCell id="cltNmSNRFCDmhToncjLq-64" style="edgeStyle=orthogonalEdgeStyle;rounded=0;orthogonalLoop=1;jettySize=auto;html=1;exitX=0.5;exitY=1;exitDx=0;exitDy=0;entryX=0.5;entryY=0;entryDx=0;entryDy=0;" parent="1" source="cltNmSNRFCDmhToncjLq-62" target="cltNmSNRFCDmhToncjLq-52" edge="1">
          <mxGeometry relative="1" as="geometry" />
        </mxCell>
        <mxCell id="cltNmSNRFCDmhToncjLq-76" style="edgeStyle=orthogonalEdgeStyle;rounded=0;orthogonalLoop=1;jettySize=auto;html=1;exitX=1;exitY=0.5;exitDx=0;exitDy=0;entryX=0.5;entryY=0;entryDx=0;entryDy=0;" parent="1" source="cltNmSNRFCDmhToncjLq-62" target="cltNmSNRFCDmhToncjLq-71" edge="1">
          <mxGeometry relative="1" as="geometry" />
        </mxCell>
        <mxCell id="cltNmSNRFCDmhToncjLq-62" value="&lt;pre&gt;&lt;pre&gt;&lt;font&gt;白名单不为空&amp;amp;&amp;amp;白名单包含ALL&lt;/font&gt;&lt;/pre&gt;&lt;pre&gt;&lt;font&gt;或者&lt;/font&gt;入参aliId&lt;/pre&gt;&lt;/pre&gt;" style="rhombus;whiteSpace=wrap;html=1;fillColor=none;verticalAlign=middle;horizontal=1;spacing=0;fontSize=11;" parent="1" vertex="1">
          <mxGeometry x="246.75" y="1850" width="216.5" height="90" as="geometry" />
        </mxCell>
        <mxCell id="cltNmSNRFCDmhToncjLq-67" style="edgeStyle=orthogonalEdgeStyle;rounded=0;orthogonalLoop=1;jettySize=auto;html=1;exitX=0.5;exitY=1;exitDx=0;exitDy=0;entryX=0.5;entryY=0;entryDx=0;entryDy=0;" parent="1" source="cltNmSNRFCDmhToncjLq-65" target="cltNmSNRFCDmhToncjLq-54" edge="1">
          <mxGeometry relative="1" as="geometry" />
        </mxCell>
        <mxCell id="cltNmSNRFCDmhToncjLq-78" style="edgeStyle=orthogonalEdgeStyle;rounded=0;orthogonalLoop=1;jettySize=auto;html=1;exitX=1;exitY=0.5;exitDx=0;exitDy=0;entryX=0.5;entryY=0;entryDx=0;entryDy=0;" parent="1" source="cltNmSNRFCDmhToncjLq-65" target="cltNmSNRFCDmhToncjLq-71" edge="1">
          <mxGeometry relative="1" as="geometry" />
        </mxCell>
        <mxCell id="cltNmSNRFCDmhToncjLq-65" value="&lt;pre&gt;&lt;pre&gt;&lt;pre style=&quot;font-size: 12px;&quot;&gt;黑名单不为空，且包含&lt;/pre&gt;&lt;pre style=&quot;font-size: 12px;&quot;&gt;入参skuCode&lt;/pre&gt;&lt;/pre&gt;&lt;/pre&gt;" style="rhombus;whiteSpace=wrap;html=1;fillColor=none;verticalAlign=middle;horizontal=1;spacing=0;fontSize=11;" parent="1" vertex="1">
          <mxGeometry x="246.75" y="2080" width="216.5" height="90" as="geometry" />
        </mxCell>
        <mxCell id="cltNmSNRFCDmhToncjLq-79" style="edgeStyle=orthogonalEdgeStyle;rounded=0;orthogonalLoop=1;jettySize=auto;html=1;exitX=1;exitY=0.5;exitDx=0;exitDy=0;entryX=0.5;entryY=0;entryDx=0;entryDy=0;" parent="1" source="cltNmSNRFCDmhToncjLq-68" target="cltNmSNRFCDmhToncjLq-71" edge="1">
          <mxGeometry relative="1" as="geometry" />
        </mxCell>
        <mxCell id="cltNmSNRFCDmhToncjLq-81" style="edgeStyle=orthogonalEdgeStyle;rounded=0;orthogonalLoop=1;jettySize=auto;html=1;exitX=0.5;exitY=1;exitDx=0;exitDy=0;entryX=0.5;entryY=0;entryDx=0;entryDy=0;" parent="1" source="cltNmSNRFCDmhToncjLq-68" target="cltNmSNRFCDmhToncjLq-25" edge="1">
          <mxGeometry relative="1" as="geometry" />
        </mxCell>
        <mxCell id="cltNmSNRFCDmhToncjLq-68" value="&lt;pre&gt;&lt;pre&gt;&lt;font&gt;白名单不为空&amp;amp;&amp;amp;白名单包含ALL&lt;/font&gt;&lt;/pre&gt;&lt;pre&gt;&lt;font&gt;或者&lt;/font&gt;入参skuCode&lt;/pre&gt;&lt;/pre&gt;" style="rhombus;whiteSpace=wrap;html=1;fillColor=none;verticalAlign=middle;horizontal=1;spacing=0;fontSize=11;" parent="1" vertex="1">
          <mxGeometry x="246.75" y="2310" width="216.5" height="90" as="geometry" />
        </mxCell>
        <mxCell id="cltNmSNRFCDmhToncjLq-71" value="未命中灰度逻辑" style="rounded=1;whiteSpace=wrap;html=1;fillColor=none;strokeColor=default;" parent="1" vertex="1">
          <mxGeometry x="540" y="2440" width="150" height="50" as="geometry" />
        </mxCell>
        <mxCell id="cltNmSNRFCDmhToncjLq-75" value="是" style="text;html=1;align=center;verticalAlign=middle;whiteSpace=wrap;rounded=0;" parent="1" vertex="1">
          <mxGeometry x="470" y="1630" width="60" height="30" as="geometry" />
        </mxCell>
        <mxCell id="cltNmSNRFCDmhToncjLq-77" value="否" style="text;html=1;align=center;verticalAlign=middle;whiteSpace=wrap;rounded=0;" parent="1" vertex="1">
          <mxGeometry x="470" y="1870" width="60" height="30" as="geometry" />
        </mxCell>
        <mxCell id="cltNmSNRFCDmhToncjLq-80" value="否" style="text;html=1;align=center;verticalAlign=middle;whiteSpace=wrap;rounded=0;" parent="1" vertex="1">
          <mxGeometry x="470" y="2320" width="60" height="30" as="geometry" />
        </mxCell>
        <mxCell id="cltNmSNRFCDmhToncjLq-82" value="否" style="text;html=1;align=center;verticalAlign=middle;whiteSpace=wrap;rounded=0;" parent="1" vertex="1">
          <mxGeometry x="340" y="1710" width="60" height="30" as="geometry" />
        </mxCell>
        <mxCell id="cltNmSNRFCDmhToncjLq-83" value="是" style="text;html=1;align=center;verticalAlign=middle;whiteSpace=wrap;rounded=0;" parent="1" vertex="1">
          <mxGeometry x="340" y="1480" width="60" height="30" as="geometry" />
        </mxCell>
        <mxCell id="cltNmSNRFCDmhToncjLq-84" value="是" style="text;html=1;align=center;verticalAlign=middle;whiteSpace=wrap;rounded=0;" parent="1" vertex="1">
          <mxGeometry x="350" y="1940" width="60" height="30" as="geometry" />
        </mxCell>
        <mxCell id="cltNmSNRFCDmhToncjLq-85" value="是" style="text;html=1;align=center;verticalAlign=middle;whiteSpace=wrap;rounded=0;" parent="1" vertex="1">
          <mxGeometry x="350" y="2400" width="60" height="30" as="geometry" />
        </mxCell>
        <mxCell id="cltNmSNRFCDmhToncjLq-86" value="否" style="text;html=1;align=center;verticalAlign=middle;whiteSpace=wrap;rounded=0;" parent="1" vertex="1">
          <mxGeometry x="355" y="2170" width="60" height="30" as="geometry" />
        </mxCell>
        <mxCell id="cltNmSNRFCDmhToncjLq-87" value="" style="rounded=1;whiteSpace=wrap;html=1;fillColor=none;strokeColor=default;dashed=1;" parent="1" vertex="1">
          <mxGeometry x="209" y="1280" width="281" height="210" as="geometry" />
        </mxCell>
        <mxCell id="cltNmSNRFCDmhToncjLq-88" value="" style="rounded=1;whiteSpace=wrap;html=1;fillColor=none;dashed=1;" parent="1" vertex="1">
          <mxGeometry x="209" y="1510" width="281" height="440" as="geometry" />
        </mxCell>
        <mxCell id="cltNmSNRFCDmhToncjLq-89" value="" style="rounded=1;whiteSpace=wrap;html=1;fillColor=none;dashed=1;" parent="1" vertex="1">
          <mxGeometry x="209" y="1965" width="281" height="440" as="geometry" />
        </mxCell>
        <mxCell id="cltNmSNRFCDmhToncjLq-90" value="按source灰度" style="text;html=1;align=center;verticalAlign=middle;whiteSpace=wrap;rounded=0;fontStyle=1" parent="1" vertex="1">
          <mxGeometry x="110" y="1360" width="80" height="30" as="geometry" />
        </mxCell>
        <mxCell id="cltNmSNRFCDmhToncjLq-91" value="按aliId灰度" style="text;html=1;align=center;verticalAlign=middle;whiteSpace=wrap;rounded=0;fontStyle=1" parent="1" vertex="1">
          <mxGeometry x="110" y="1715" width="80" height="30" as="geometry" />
        </mxCell>
        <mxCell id="cltNmSNRFCDmhToncjLq-92" value="按skuCode灰度" style="text;html=1;align=center;verticalAlign=middle;whiteSpace=wrap;rounded=0;fontStyle=1" parent="1" vertex="1">
          <mxGeometry x="100" y="2130" width="90" height="30" as="geometry" />
        </mxCell>
      </root>
    </mxGraphModel>
  </diagram>
</mxfile>
